<svg width="20" height="22" viewBox="0 0 20 22" fill="none" xmlns="http://www.w3.org/2000/svg">
<path d="M16 17.86H15.24C14.44 17.86 13.68 18.17 13.12 18.73L11.41 20.42C10.63 21.19 9.36 21.19 8.58 20.42L6.87 18.73C6.31 18.17 5.54 17.86 4.75 17.86H4C2.34 17.86 1 16.53 1 14.89V3.97999C1 2.33999 2.34 1.00999 4 1.00999H16C17.66 1.00999 19 2.33999 19 3.97999V14.89C19 16.52 17.66 17.86 16 17.86Z" stroke="#F5FAFF" stroke-width="1.5" stroke-miterlimit="10" stroke-linecap="round" stroke-linejoin="round"/>
<path d="M5 8.16C5 7.23 5.76 6.47 6.69 6.47C7.62 6.47 8.38 7.23 8.38 8.16C8.38 10.04 5.71 10.24 5.12 12.03C5 12.4 5.31 12.77 5.7 12.77H8.38" stroke="#F5FAFF" stroke-width="1.5" stroke-linecap="round" stroke-linejoin="round"/>
<path d="M14.04 12.76V7.04999C14.0406 6.92364 13.9998 6.80057 13.924 6.69949C13.8482 6.59841 13.7415 6.52485 13.62 6.48999C13.4977 6.45546 13.3676 6.46111 13.2488 6.50612C13.1299 6.55113 13.0287 6.63311 12.96 6.73999C12.24 7.89999 11.46 9.21999 10.78 10.38C10.67 10.57 10.67 10.82 10.78 11.01C10.89 11.2 11.1 11.32 11.33 11.32H15" stroke="#F5FAFF" stroke-width="1.5" stroke-linecap="round" stroke-linejoin="round"/>
</svg>
