<svg width="20" height="22" viewBox="0 0 20 22" fill="none" xmlns="http://www.w3.org/2000/svg">
<path d="M10 11C11.3261 11 12.5979 10.4732 13.5355 9.53553C14.4732 8.59785 15 7.32608 15 6C15 4.67392 14.4732 3.40215 13.5355 2.46447C12.5979 1.52678 11.3261 1 10 1C8.67392 1 7.40215 1.52678 6.46447 2.46447C5.52678 3.40215 5 4.67392 5 6C5 7.32608 5.52678 8.59785 6.46447 9.53553C7.40215 10.4732 8.67392 11 10 11V11Z" stroke="#F5FAFF" stroke-width="1.5" stroke-linecap="round" stroke-linejoin="round"/>
<path d="M18.5899 21C18.5899 17.13 14.7399 14 9.99991 14C5.25991 14 1.40991 17.13 1.40991 21" stroke="#F5FAFF" stroke-width="1.5" stroke-linecap="round" stroke-linejoin="round"/>
</svg>
