<svg width="22" height="22" viewBox="0 0 22 22" fill="none" xmlns="http://www.w3.org/2000/svg">
<path d="M17.32 11C19.92 11 21 10 20.04 6.72C19.39 4.51 17.49 2.61 15.28 1.96C12 0.999997 11 2.08 11 4.68V7.56C11 10 12 11 14 11H17.32Z" stroke="#F5FAFF" stroke-width="1.5" stroke-linecap="round" stroke-linejoin="round"/>
<path d="M18.9999 13.7C18.5338 16.0141 17.1859 18.0561 15.2412 19.3942C13.2966 20.7323 10.9077 21.2616 8.57988 20.87C4.78988 20.26 1.73988 17.21 1.11988 13.42C0.732634 11.0983 1.26007 8.71681 2.59143 6.77571C3.92279 4.83461 5.95449 3.48489 8.25988 3.00999" stroke="#F5FAFF" stroke-width="1.5" stroke-linecap="round" stroke-linejoin="round"/>
</svg>
