<svg width="22" height="22" viewBox="0 0 22 22" fill="none" xmlns="http://www.w3.org/2000/svg">
<path d="M17.9998 8C17.9998 9.45 17.5698 10.78 16.8298 11.89C16.2876 12.6987 15.5822 13.3852 14.759 13.9053C13.9359 14.4254 13.013 14.7676 12.0498 14.91C11.7098 14.97 11.3598 15 10.9998 15C10.6398 15 10.2898 14.97 9.9498 14.91C8.98657 14.7676 8.06375 14.4254 7.24057 13.9053C6.4174 13.3852 5.71205 12.6987 5.1698 11.89C4.40211 10.7383 3.9948 9.38409 3.9998 8C3.9998 4.13 7.1298 1 10.9998 1C14.8698 1 17.9998 4.13 17.9998 8Z" stroke="#F5FAFF" stroke-width="1.5" stroke-linecap="round" stroke-linejoin="round"/>
<path d="M20.2499 17.47L18.5999 17.86C18.2299 17.95 17.9399 18.23 17.8599 18.6L17.5099 20.07C17.467 20.2504 17.3747 20.4154 17.2434 20.5464C17.1121 20.6774 16.947 20.7693 16.7664 20.8119C16.5859 20.8544 16.3971 20.8459 16.2211 20.7873C16.0451 20.7287 15.8889 20.6223 15.7699 20.48L10.9999 15L6.22992 20.49C6.11093 20.6323 5.95472 20.7387 5.77874 20.7973C5.60276 20.8559 5.41395 20.8644 5.23341 20.8219C5.05287 20.7793 4.88772 20.6874 4.75642 20.5564C4.62512 20.4254 4.53285 20.2604 4.48992 20.08L4.13992 18.61C4.09737 18.4301 4.00563 18.2657 3.87494 18.135C3.74425 18.0043 3.57977 17.9125 3.39992 17.87L1.74992 17.48C1.57704 17.4386 1.41829 17.3519 1.28991 17.229C1.16153 17.106 1.06814 16.9511 1.0193 16.7802C0.970467 16.6092 0.967937 16.4284 1.01197 16.2562C1.05601 16.0839 1.14503 15.9265 1.26992 15.8L5.16992 11.9C5.71216 12.7087 6.41751 13.3952 7.24069 13.9153C8.06386 14.4354 8.98668 14.7776 9.94992 14.92C10.2899 14.98 10.6399 15.01 10.9999 15.01C11.3599 15.01 11.7099 14.98 12.0499 14.92C14.0399 14.63 15.7499 13.5 16.8299 11.9L20.7299 15.8C21.2799 16.34 21.0099 17.29 20.2499 17.47V17.47Z" stroke="#F5FAFF" stroke-width="1.5" stroke-linecap="round" stroke-linejoin="round"/>
<path d="M11.58 4.98L12.17 6.16C12.25 6.32 12.46 6.48 12.65 6.51L13.72 6.69C14.4 6.8 14.56 7.3 14.07 7.79L13.24 8.62C13.1 8.76 13.02 9.03 13.07 9.23L13.31 10.26C13.5 11.07 13.07 11.39 12.35 10.96L11.35 10.37C11.2484 10.3158 11.1351 10.2875 11.02 10.2875C10.9049 10.2875 10.7915 10.3158 10.69 10.37L9.68997 10.96C8.96997 11.38 8.53997 11.07 8.72997 10.26L8.96997 9.23C9.00997 9.04 8.93997 8.76 8.79997 8.62L7.96997 7.79C7.47997 7.3 7.63997 6.81 8.31997 6.69L9.38997 6.51C9.56997 6.48 9.77997 6.32 9.85997 6.16L10.45 4.98C10.74 4.34 11.26 4.34 11.58 4.98V4.98Z" stroke="#F5FAFF" stroke-width="1.5" stroke-linecap="round" stroke-linejoin="round"/>
</svg>
