<svg width="22" height="22" viewBox="0 0 22 22" fill="none" xmlns="http://www.w3.org/2000/svg">
<path d="M4.46005 17.49V14.57C4.46005 13.6 5.22005 12.73 6.30005 12.73C7.27005 12.73 8.14005 13.49 8.14005 14.57V17.38C8.14005 19.33 6.52005 20.95 4.57005 20.95C2.62005 20.95 1.00005 19.32 1.00005 17.38V11.22C0.890047 5.59999 5.33005 1.04999 10.95 1.04999C16.57 1.04999 21 5.59999 21 11.11V17.27C21 19.22 19.38 20.84 17.43 20.84C15.48 20.84 13.86 19.22 13.86 17.27V14.46C13.86 13.49 14.62 12.62 15.7 12.62C16.67 12.62 17.54 13.38 17.54 14.46V17.49" stroke="#F5FAFF" stroke-width="1.5" stroke-linecap="round" stroke-linejoin="round"/>
</svg>
