<svg width="24" height="22" viewBox="0 0 24 22" fill="none" xmlns="http://www.w3.org/2000/svg">
<path d="M12.37 1.15L21.37 4.75C21.72 4.89 22 5.31 22 5.68V9C22 9.55 21.55 10 21 10H3C2.45 10 2 9.55 2 9V5.68C2 5.31 2.28 4.89 2.63 4.75L11.63 1.15C11.83 1.07 12.17 1.07 12.37 1.15Z" stroke="#F5FAFF" stroke-width="1.5" stroke-miterlimit="10" stroke-linecap="round" stroke-linejoin="round"/>
<path d="M22 21H2V18C2 17.45 2.45 17 3 17H21C21.55 17 22 17.45 22 18V21Z" stroke="#F5FAFF" stroke-width="1.5" stroke-miterlimit="10" stroke-linecap="round" stroke-linejoin="round"/>
<path d="M4 17V10" stroke="#F5FAFF" stroke-width="1.5" stroke-miterlimit="10" stroke-linecap="round" stroke-linejoin="round"/>
<path d="M8 17V10" stroke="#F5FAFF" stroke-width="1.5" stroke-miterlimit="10" stroke-linecap="round" stroke-linejoin="round"/>
<path d="M12 17V10" stroke="#F5FAFF" stroke-width="1.5" stroke-miterlimit="10" stroke-linecap="round" stroke-linejoin="round"/>
<path d="M16 17V10" stroke="#F5FAFF" stroke-width="1.5" stroke-miterlimit="10" stroke-linecap="round" stroke-linejoin="round"/>
<path d="M20 17V10" stroke="#F5FAFF" stroke-width="1.5" stroke-miterlimit="10" stroke-linecap="round" stroke-linejoin="round"/>
<path d="M1 21H23" stroke="#F5FAFF" stroke-width="1.5" stroke-miterlimit="10" stroke-linecap="round" stroke-linejoin="round"/>
<path d="M12 7.5C12.197 7.5 12.392 7.4612 12.574 7.38582C12.756 7.31044 12.9214 7.19995 13.0607 7.06066C13.1999 6.92137 13.3104 6.75601 13.3858 6.57403C13.4612 6.39204 13.5 6.19698 13.5 6C13.5 5.80302 13.4612 5.60796 13.3858 5.42597C13.3104 5.24399 13.1999 5.07863 13.0607 4.93934C12.9214 4.80005 12.756 4.68956 12.574 4.61418C12.392 4.5388 12.197 4.5 12 4.5C11.6022 4.5 11.2206 4.65804 10.9393 4.93934C10.658 5.22064 10.5 5.60218 10.5 6C10.5 6.39782 10.658 6.77936 10.9393 7.06066C11.2206 7.34196 11.6022 7.5 12 7.5V7.5Z" stroke="#F5FAFF" stroke-width="1.5" stroke-miterlimit="10" stroke-linecap="round" stroke-linejoin="round"/>
</svg>
