<svg width="22" height="22" viewBox="0 0 22 22" fill="none" xmlns="http://www.w3.org/2000/svg">
<path d="M16.9998 6.16C16.9369 6.14999 16.8728 6.14999 16.8098 6.16C16.1425 6.13587 15.5106 5.85321 15.0479 5.37176C14.5851 4.89032 14.3276 4.2478 14.3298 3.58C14.3298 2.15 15.4798 1 16.9098 1C17.5941 1 18.2503 1.27182 18.7342 1.75566C19.218 2.23951 19.4898 2.89574 19.4898 3.58C19.488 4.24827 19.2278 4.88996 18.7638 5.37081C18.2997 5.85167 17.6676 6.13445 16.9998 6.16V6.16Z" stroke="#F5FAFF" stroke-width="1.5" stroke-linecap="round" stroke-linejoin="round"/>
<path d="M15.9699 13.44C17.3399 13.67 18.8499 13.43 19.9099 12.72C21.3199 11.78 21.3199 10.24 19.9099 9.3C18.8399 8.59 17.3099 8.35 15.9399 8.59" stroke="#F5FAFF" stroke-width="1.5" stroke-linecap="round" stroke-linejoin="round"/>
<path d="M4.96998 6.16C5.02998 6.15 5.09998 6.15 5.15998 6.16C5.82735 6.13587 6.45919 5.85321 6.92197 5.37176C7.38476 4.89032 7.64223 4.2478 7.63998 3.58C7.63998 2.15 6.48998 1 5.05998 1C4.37572 1 3.71949 1.27182 3.23564 1.75566C2.7518 2.23951 2.47998 2.89574 2.47998 3.58C2.48998 4.98 3.58998 6.11 4.96998 6.16Z" stroke="#F5FAFF" stroke-width="1.5" stroke-linecap="round" stroke-linejoin="round"/>
<path d="M5.99994 13.44C4.62994 13.67 3.11994 13.43 2.05994 12.72C0.649941 11.78 0.649941 10.24 2.05994 9.3C3.12994 8.59 4.65994 8.35 6.02994 8.59" stroke="#F5FAFF" stroke-width="1.5" stroke-linecap="round" stroke-linejoin="round"/>
<path d="M10.9998 13.63C10.9369 13.62 10.8728 13.62 10.8098 13.63C10.1425 13.6059 9.51064 13.3232 9.04785 12.8418C8.58507 12.3603 8.3276 11.7178 8.32985 11.05C8.32985 9.62 9.47985 8.47 10.9098 8.47C11.5941 8.47 12.2503 8.74182 12.7342 9.22566C13.218 9.70951 13.4898 10.3657 13.4898 11.05C13.4798 12.45 12.3798 13.59 10.9998 13.63Z" stroke="#F5FAFF" stroke-width="1.5" stroke-linecap="round" stroke-linejoin="round"/>
<path d="M8.08997 16.78C6.67997 17.72 6.67997 19.26 8.08997 20.2C9.68997 21.27 12.31 21.27 13.91 20.2C15.32 19.26 15.32 17.72 13.91 16.78C12.32 15.72 9.68997 15.72 8.08997 16.78Z" stroke="#F5FAFF" stroke-width="1.5" stroke-linecap="round" stroke-linejoin="round"/>
</svg>
