<svg width="18" height="23" viewBox="0 0 18 23" fill="none" xmlns="http://www.w3.org/2000/svg">
<path d="M9.02009 2.40991C5.71009 2.40991 3.02009 5.09991 3.02009 8.40991V11.2999C3.02009 11.9099 2.76009 12.8399 2.45009 13.3599L1.30009 15.2699C0.590088 16.4499 1.08009 17.7599 2.38009 18.1999C6.69009 19.6399 11.3401 19.6399 15.6501 18.1999C16.8601 17.7999 17.3901 16.3699 16.7301 15.2699L15.5801 13.3599C15.2801 12.8399 15.0201 11.9099 15.0201 11.2999V8.40991C15.0201 5.10991 12.3201 2.40991 9.02009 2.40991Z" stroke="#001324" stroke-width="1.5" stroke-miterlimit="10" stroke-linecap="round"/>
<path d="M10.8702 2.69994C9.66088 2.35553 8.37946 2.35553 7.17017 2.69994C7.46017 1.95994 8.18017 1.43994 9.02017 1.43994C9.86017 1.43994 10.5802 1.95994 10.8702 2.69994V2.69994Z" stroke="#001324" stroke-width="1.5" stroke-miterlimit="10" stroke-linecap="round" stroke-linejoin="round"/>
<path d="M12.02 18.5599C12.02 20.2099 10.67 21.5599 9.02002 21.5599C8.20002 21.5599 7.44002 21.2199 6.90002 20.6799C6.33818 20.1172 6.02181 19.3551 6.02002 18.5599" stroke="#001324" stroke-width="1.5" stroke-miterlimit="10"/>
</svg>
