<svg width="21" height="23" viewBox="0 0 21 23" fill="none" xmlns="http://www.w3.org/2000/svg">
<path d="M6 1V4" stroke="#0069C4" stroke-width="1.5" stroke-miterlimit="10" stroke-linecap="round" stroke-linejoin="round"/>
<path d="M14 1V4" stroke="#0069C4" stroke-width="1.5" stroke-miterlimit="10" stroke-linecap="round" stroke-linejoin="round"/>
<path d="M1.5 8.08997H18.5" stroke="#0069C4" stroke-width="1.5" stroke-miterlimit="10" stroke-linecap="round" stroke-linejoin="round"/>
<path d="M16 22C17.0609 22 18.0783 21.5786 18.8284 20.8284C19.5786 20.0783 20 19.0609 20 18C20 16.9391 19.5786 15.9217 18.8284 15.1716C18.0783 14.4214 17.0609 14 16 14C14.9391 14 13.9217 14.4214 13.1716 15.1716C12.4214 15.9217 12 16.9391 12 18C12 19.0609 12.4214 20.0783 13.1716 20.8284C13.9217 21.5786 14.9391 22 16 22Z" stroke="#0069C4" stroke-width="1.5" stroke-miterlimit="10" stroke-linecap="round" stroke-linejoin="round"/>
<path d="M17.4898 18.05H14.5098" stroke="#0069C4" stroke-width="1.5" stroke-miterlimit="10" stroke-linecap="round" stroke-linejoin="round"/>
<path d="M16 16.59V19.58" stroke="#0069C4" stroke-width="1.5" stroke-miterlimit="10" stroke-linecap="round" stroke-linejoin="round"/>
<path d="M19 7.5V15.36C18.27 14.53 17.2 14 16 14C13.79 14 12 15.79 12 18C12 18.75 12.21 19.46 12.58 20.06C12.79 20.42 13.06 20.74 13.37 21H6C2.5 21 1 19 1 16V7.5C1 4.5 2.5 2.5 6 2.5H14C17.5 2.5 19 4.5 19 7.5Z" stroke="#0069C4" stroke-width="1.5" stroke-miterlimit="10" stroke-linecap="round" stroke-linejoin="round"/>
<path d="M9.99512 12.7H10.0051" stroke="#0069C4" stroke-width="2" stroke-linecap="round" stroke-linejoin="round"/>
<path d="M6.29395 12.7H6.30395" stroke="#0069C4" stroke-width="2" stroke-linecap="round" stroke-linejoin="round"/>
<path d="M6.29395 15.7H6.30395" stroke="#0069C4" stroke-width="2" stroke-linecap="round" stroke-linejoin="round"/>
</svg>
