<svg width="22" height="20" viewBox="0 0 22 20" fill="none" xmlns="http://www.w3.org/2000/svg">
<path d="M14.5802 9.99992C14.5802 11.9799 12.9802 13.5799 11.0002 13.5799C9.02017 13.5799 7.42017 11.9799 7.42017 9.99992C7.42017 8.01992 9.02017 6.41992 11.0002 6.41992C12.9802 6.41992 14.5802 8.01992 14.5802 9.99992Z" stroke="#F5FAFF" stroke-width="1.5" stroke-linecap="round" stroke-linejoin="round"/>
<path d="M11.0001 18.27C14.5301 18.27 17.8201 16.19 20.1101 12.59C21.0101 11.18 21.0101 8.80997 20.1101 7.39997C17.8201 3.79997 14.5301 1.71997 11.0001 1.71997C7.47009 1.71997 4.18009 3.79997 1.89009 7.39997C0.990088 8.80997 0.990088 11.18 1.89009 12.59C4.18009 16.19 7.47009 18.27 11.0001 18.27Z" stroke="#F5FAFF" stroke-width="1.5" stroke-linecap="round" stroke-linejoin="round"/>
</svg>
