<svg width="22" height="21" viewBox="0 0 22 21" fill="none" xmlns="http://www.w3.org/2000/svg">
<path d="M21 5H15" stroke="#0069C4" stroke-width="1.5" stroke-miterlimit="10" stroke-linecap="round" stroke-linejoin="round"/>
<path d="M5 5H1" stroke="#0069C4" stroke-width="1.5" stroke-miterlimit="10" stroke-linecap="round" stroke-linejoin="round"/>
<path d="M9 8.5C9.45963 8.5 9.91475 8.40947 10.3394 8.23358C10.764 8.05769 11.1499 7.79988 11.4749 7.47487C11.7999 7.14987 12.0577 6.76403 12.2336 6.33939C12.4095 5.91475 12.5 5.45963 12.5 5C12.5 4.54037 12.4095 4.08525 12.2336 3.66061C12.0577 3.23597 11.7999 2.85013 11.4749 2.52513C11.1499 2.20012 10.764 1.94231 10.3394 1.76642C9.91475 1.59053 9.45963 1.5 9 1.5C8.07174 1.5 7.1815 1.86875 6.52513 2.52513C5.86875 3.1815 5.5 4.07174 5.5 5C5.5 5.92826 5.86875 6.8185 6.52513 7.47487C7.1815 8.13125 8.07174 8.5 9 8.5V8.5Z" stroke="#0069C4" stroke-width="1.5" stroke-miterlimit="10" stroke-linecap="round" stroke-linejoin="round"/>
<path d="M21 16H17" stroke="#0069C4" stroke-width="1.5" stroke-miterlimit="10" stroke-linecap="round" stroke-linejoin="round"/>
<path d="M7 16H1" stroke="#0069C4" stroke-width="1.5" stroke-miterlimit="10" stroke-linecap="round" stroke-linejoin="round"/>
<path d="M13 19.5C13.9283 19.5 14.8185 19.1313 15.4749 18.4749C16.1313 17.8185 16.5 16.9283 16.5 16C16.5 15.0717 16.1313 14.1815 15.4749 13.5251C14.8185 12.8687 13.9283 12.5 13 12.5C12.0717 12.5 11.1815 12.8687 10.5251 13.5251C9.86875 14.1815 9.5 15.0717 9.5 16C9.5 16.9283 9.86875 17.8185 10.5251 18.4749C11.1815 19.1313 12.0717 19.5 13 19.5V19.5Z" stroke="#0069C4" stroke-width="1.5" stroke-miterlimit="10" stroke-linecap="round" stroke-linejoin="round"/>
</svg>
