<svg width="36" height="36" viewBox="0 0 36 36" fill="none" xmlns="http://www.w3.org/2000/svg">
<path d="M11.3335 34.6667H24.6668C31.3668 34.6667 32.5668 31.9833 32.9168 28.7167L34.1668 15.3833C34.6168 11.3167 33.4501 8 26.3335 8H9.66678C2.55012 8 1.38345 11.3167 1.83345 15.3833L3.08345 28.7167C3.43345 31.9833 4.63345 34.6667 11.3335 34.6667Z" stroke="#292E32" stroke-width="1.5" stroke-miterlimit="10" stroke-linecap="round" stroke-linejoin="round"/>
<path d="M11.3335 7.99992V6.66658C11.3335 3.71658 11.3335 1.33325 16.6668 1.33325H19.3335C24.6668 1.33325 24.6668 3.71658 24.6668 6.66658V7.99992" stroke="#292E32" stroke-width="1.5" stroke-miterlimit="10" stroke-linecap="round" stroke-linejoin="round"/>
<path d="M21.3334 19.6667V21.3667C21.3334 23.1833 21.3167 24.6667 18.0001 24.6667C14.7001 24.6667 14.6667 23.2 14.6667 21.3833V19.6667C14.6667 18 14.6667 18 16.3334 18H19.6667C21.3334 18 21.3334 18 21.3334 19.6667Z" stroke="#292E32" stroke-width="1.5" stroke-miterlimit="10" stroke-linecap="round" stroke-linejoin="round"/>
<path d="M34.0835 16.3333C30.327 19.0614 25.9405 20.793 21.3335 21.3666" stroke="#292E32" stroke-width="1.5" stroke-miterlimit="10" stroke-linecap="round" stroke-linejoin="round"/>
<path d="M2.3667 16.7832C6.1167 19.3499 10.35 20.8999 14.6667 21.3832" stroke="#001324" stroke-width="1.5" stroke-miterlimit="10" stroke-linecap="round" stroke-linejoin="round"/>
</svg>
