<svg width="38" height="38" viewBox="0 0 38 38" fill="none" xmlns="http://www.w3.org/2000/svg">
<path d="M36.7777 9.90902V28.0908C36.7777 35.3636 34.5555 37.1818 25.6666 37.1818H12.3333C3.44439 37.1818 1.22217 35.3636 1.22217 28.0908V9.90902C1.22217 2.6363 3.44439 0.818115 12.3333 0.818115H25.6666C34.5555 0.818115 36.7777 2.6363 36.7777 9.90902Z" stroke="#292E32" stroke-width="1.5" stroke-linecap="round" stroke-linejoin="round"/>
<path d="M23.4443 7.18164H14.5554" stroke="#292E32" stroke-width="1.5" stroke-linecap="round" stroke-linejoin="round"/>
<path d="M18.9999 31.9091C19.9134 31.9091 20.7895 31.6122 21.4355 31.0836C22.0814 30.5551 22.4443 29.8383 22.4443 29.0909C22.4443 28.3435 22.0814 27.6266 21.4355 27.0981C20.7895 26.5696 19.9134 26.2727 18.9999 26.2727C18.0863 26.2727 17.2102 26.5696 16.5643 27.0981C15.9183 27.6266 15.5554 28.3435 15.5554 29.0909C15.5554 29.8383 15.9183 30.5551 16.5643 31.0836C17.2102 31.6122 18.0863 31.9091 18.9999 31.9091V31.9091Z" stroke="#292E32" stroke-width="1.5" stroke-linecap="round" stroke-linejoin="round"/>
</svg>
