<svg width="20" height="6" viewBox="0 0 20 6" fill="none" xmlns="http://www.w3.org/2000/svg">
<path d="M3 1.00009C1.9 1.00009 1 1.90009 1 3.00009C1 4.10009 1.9 5.00009 3 5.00009C4.1 5.00009 5 4.10009 5 3.00009C5 1.90009 4.1 1.00009 3 1.00009Z" stroke="#58636C" stroke-width="1.5"/>
<path d="M17 1.00009C15.9 1.00009 15 1.90009 15 3.00009C15 4.10009 15.9 5.00009 17 5.00009C18.1 5.00009 19 4.10009 19 3.00009C19 1.90009 18.1 1.00009 17 1.00009Z" stroke="#58636C" stroke-width="1.5"/>
<path d="M10 1.00009C8.9 1.00009 8 1.90009 8 3.00009C8 4.10009 8.9 5.00009 10 5.00009C11.1 5.00009 12 4.10009 12 3.00009C12 1.90009 11.1 1.00009 10 1.00009Z" stroke="#58636C" stroke-width="1.5"/>
</svg>
