<svg width="34" height="36" viewBox="0 0 34 36" fill="none" xmlns="http://www.w3.org/2000/svg">
<path d="M15.9998 17.9999C18.21 17.9999 20.3296 17.1219 21.8924 15.5591C23.4552 13.9963 24.3332 11.8767 24.3332 9.66659C24.3332 7.45645 23.4552 5.33683 21.8924 3.77403C20.3296 2.21123 18.21 1.33325 15.9998 1.33325C13.7897 1.33325 11.6701 2.21123 10.1073 3.77403C8.54448 5.33683 7.6665 7.45645 7.6665 9.66659C7.6665 11.8767 8.54448 13.9963 10.1073 15.5591C11.6701 17.1219 13.7897 17.9999 15.9998 17.9999V17.9999Z" stroke="#292E32" stroke-width="1.5" stroke-linecap="round" stroke-linejoin="round"/>
<path d="M1.68311 34.6667C1.68311 28.2167 8.09977 23 15.9998 23C17.5998 23 19.1498 23.2167 20.5998 23.6167" stroke="#292E32" stroke-width="1.5" stroke-linecap="round" stroke-linejoin="round"/>
<path d="M32.6664 28C32.6664 29.25 32.3164 30.4333 31.6997 31.4333C31.3497 32.0333 30.8997 32.5667 30.383 33C29.2164 34.05 27.683 34.6667 25.9997 34.6667C24.8506 34.6691 23.7208 34.3722 22.7213 33.8052C21.7218 33.2383 20.8872 32.4208 20.2997 31.4333C19.6653 30.4007 19.3306 29.212 19.333 28C19.333 25.9 20.2997 24.0167 21.833 22.8C22.813 22.0145 23.995 21.522 25.2428 21.379C26.4905 21.2361 27.7533 21.4486 28.8855 21.992C30.0177 22.5355 30.9734 23.3878 31.6423 24.4508C32.3112 25.5138 32.6662 26.7441 32.6664 28V28Z" stroke="#292E32" stroke-width="1.5" stroke-miterlimit="10" stroke-linecap="round" stroke-linejoin="round"/>
<path d="M23.3999 28L25.0499 29.65L28.5999 26.3667" stroke="#58636C" stroke-width="1.5" stroke-linecap="round" stroke-linejoin="round"/>
</svg>
