<svg width="22" height="20" viewBox="0 0 22 20" fill="none" xmlns="http://www.w3.org/2000/svg">
<path d="M14.58 10C14.58 11.98 12.98 13.58 11 13.58C9.02004 13.58 7.42004 11.98 7.42004 10C7.42004 8.02 9.02004 6.42 11 6.42C12.98 6.42 14.58 8.02 14.58 10Z" stroke="#F5FAFF" stroke-width="1.5" stroke-linecap="round" stroke-linejoin="round"/>
<path d="M11 18.27C14.53 18.27 17.82 16.19 20.11 12.59C21.01 11.18 21.01 8.81 20.11 7.4C17.82 3.8 14.53 1.72 11 1.72C7.47003 1.72 4.18003 3.8 1.89003 7.4C0.990027 8.81 0.990027 11.18 1.89003 12.59C4.18003 16.19 7.47003 18.27 11 18.27Z" stroke="#F5FAFF" stroke-width="1.5" stroke-linecap="round" stroke-linejoin="round"/>
</svg>
