<svg width="22" height="20" viewBox="0 0 22 20" fill="none" xmlns="http://www.w3.org/2000/svg">
<path d="M14.5802 10C14.5802 11.98 12.9802 13.58 11.0002 13.58C9.02017 13.58 7.42017 11.98 7.42017 10C7.42017 8.02 9.02017 6.42 11.0002 6.42C12.9802 6.42 14.5802 8.02 14.5802 10Z" stroke="#58636C" stroke-width="1.5" stroke-linecap="round" stroke-linejoin="round"/>
<path d="M11.0001 18.27C14.5301 18.27 17.8201 16.19 20.1101 12.59C21.0101 11.18 21.0101 8.81 20.1101 7.4C17.8201 3.8 14.5301 1.72 11.0001 1.72C7.47009 1.72 4.18009 3.8 1.89009 7.4C0.990088 8.81 0.990088 11.18 1.89009 12.59C4.18009 16.19 7.47009 18.27 11.0001 18.27Z" stroke="#58636C" stroke-width="1.5" stroke-linecap="round" stroke-linejoin="round"/>
</svg>
