<svg width="36" height="37" viewBox="0 0 36 37" fill="none" xmlns="http://www.w3.org/2000/svg">
<path d="M34.6665 7.99992V12.0333C34.6665 14.6666 32.9998 16.3333 30.3665 16.3333H24.6665V4.68325C24.6665 2.83325 26.1832 1.33325 28.0332 1.33325C29.8498 1.34992 31.5165 2.08325 32.7165 3.28325C33.9165 4.49992 34.6665 6.16659 34.6665 7.99992Z" stroke="#292E32" stroke-width="1.5" stroke-miterlimit="10" stroke-linecap="round" stroke-linejoin="round"/>
<path d="M1.33325 9.66659V32.9999C1.33325 34.3833 2.89992 35.1666 3.99992 34.3333L6.84992 32.1999C7.51659 31.6999 8.44992 31.7666 9.04992 32.3666L11.8166 35.1499C12.4666 35.7999 13.5333 35.7999 14.1833 35.1499L16.9833 32.3499C17.5666 31.7666 18.4999 31.6999 19.1499 32.1999L21.9999 34.3333C23.0999 35.1499 24.6666 34.3666 24.6666 32.9999V4.66659C24.6666 2.83325 26.1666 1.33325 27.9999 1.33325H7.99992C2.99992 1.33325 1.33325 4.31659 1.33325 7.99992V9.66659Z" stroke="#292E32" stroke-width="1.5" stroke-miterlimit="10" stroke-linecap="round" stroke-linejoin="round"/>
<path d="M8 13H18" stroke="#292E32" stroke-width="1.5" stroke-linecap="round" stroke-linejoin="round"/>
<path d="M9.25 19.6665H16.75" stroke="#292E32" stroke-width="1.5" stroke-linecap="round" stroke-linejoin="round"/>
</svg>
