<svg width="21" height="22" viewBox="0 0 21 22" fill="none" xmlns="http://www.w3.org/2000/svg">
<path d="M6 1V4" stroke="#58636C" stroke-width="1.5" stroke-miterlimit="10" stroke-linecap="round" stroke-linejoin="round"/>
<path d="M14 1V4" stroke="#58636C" stroke-width="1.5" stroke-miterlimit="10" stroke-linecap="round" stroke-linejoin="round"/>
<path d="M16.2 20.4C17.0487 20.4 17.8626 20.0629 18.4627 19.4627C19.0629 18.8626 19.4 18.0487 19.4 17.2C19.4 16.3513 19.0629 15.5374 18.4627 14.9373C17.8626 14.3371 17.0487 14 16.2 14C15.3513 14 14.5374 14.3371 13.9373 14.9373C13.3371 15.5374 13 16.3513 13 17.2C13 18.0487 13.3371 18.8626 13.9373 19.4627C14.5374 20.0629 15.3513 20.4 16.2 20.4Z" stroke="#58636C" stroke-width="1.5" stroke-linecap="round" stroke-linejoin="round"/>
<path d="M20 21L19 20" stroke="#58636C" stroke-width="1.5" stroke-linecap="round" stroke-linejoin="round"/>
<path d="M1.5 8.08984H18.5" stroke="#58636C" stroke-width="1.5" stroke-miterlimit="10" stroke-linecap="round" stroke-linejoin="round"/>
<path d="M11.37 21H6C2.5 21 1 19 1 16V7.5C1 4.5 2.5 2.5 6 2.5H14C17.5 2.5 19 4.5 19 7.5V12" stroke="#58636C" stroke-width="1.5" stroke-miterlimit="10" stroke-linecap="round" stroke-linejoin="round"/>
<path d="M9.995 12.7002H10.005" stroke="#58636C" stroke-width="2" stroke-linecap="round" stroke-linejoin="round"/>
<path d="M6.29401 12.7002H6.30401" stroke="#58636C" stroke-width="2" stroke-linecap="round" stroke-linejoin="round"/>
<path d="M6.29401 15.7002H6.30401" stroke="#58636C" stroke-width="2" stroke-linecap="round" stroke-linejoin="round"/>
</svg>
